<?xml version="1.0" encoding="UTF-8"?>
<svg xmlns="http://www.w3.org/2000/svg" xmlns:xlink="http://www.w3.org/1999/xlink" width="14px" height="16px" viewBox="0 0 14 16" version="1.1">
<g id="surface1">
<path style=" stroke:none;fill-rule:nonzero;fill:#fff;fill-opacity:1;" d="M 7 8 C 9.210938 8 11 6.210938 11 4 C 11 1.789062 9.210938 0 7 0 C 4.789062 0 3 1.789062 3 4 C 3 6.210938 4.789062 8 7 8 Z M 8.585938 9.5 L 5.414062 9.5 C 2.425781 9.5 0 11.925781 0 14.914062 C 0 15.515625 0.484375 16 1.082031 16 L 12.917969 16 C 13.515625 16 14 15.515625 14 14.914062 C 14 11.925781 11.574219 9.5 8.585938 9.5 Z M 8.585938 9.5 "/>
</g>
</svg>
